{
	"asset":{
		"generator":"Khronos glTF Blender I/O v4.0.44",
		"version":"2.0"
	},
	"scene":0,
	"scenes":[
		{
			"name":"Scene",
			"nodes":[
				12
			]
		}
	],
	"nodes":[
		{
			"mesh":0,
			"name":"Cube",
			"scale":[
				1.692920446395874,
				1,
				1.692920446395874
			],
			"translation":[
				0,
				-0.2964223623275757,
				0
			]
		},
		{
			"children":[
				0
			],
			"name":"Bun_top",
			"translation":[
				0,
				0.6125456094741821,
				0
			]
		},
		{
			"mesh":1,
			"name":"Cylinder",
			"translation":[
				0,
				-0.02396911382675171,
				0
			]
		},
		{
			"children":[
				2
			],
			"name":"Tomato",
			"translation":[
				0,
				0.22150087356567383,
				0
			]
		},
		{
			"mesh":2,
			"name":"Plane",
			"rotation":[
				0.005578993353992701,
				-0.0018661475041881204,
				0.019449472427368164,
				0.999793529510498
			],
			"scale":[
				1.5831596851348877,
				1.5831600427627563,
				1.5831599235534668
			],
			"translation":[
				0.003040013136342168,
				0.1099405586719513,
				0.003908055368810892
			]
		},
		{
			"children":[
				4
			],
			"name":"Lettuce",
			"translation":[
				0,
				0.027345776557922363,
				0
			]
		},
		{
			"mesh":3,
			"name":"Cube.001",
			"scale":[
				1.7890692949295044,
				0.5322126150131226,
				1.7890692949295044
			],
			"translation":[
				0,
				0.02931070327758789,
				0
			]
		},
		{
			"mesh":4,
			"name":"Plane.001",
			"scale":[
				1.1884872913360596,
				1.1884872913360596,
				1.1884872913360596
			],
			"translation":[
				0,
				0.22679008543491364,
				0
			]
		},
		{
			"children":[
				6,
				7
			],
			"name":"Meat",
			"translation":[
				0,
				-0.24064290523529053,
				0
			]
		},
		{
			"mesh":5,
			"name":"Cylinder.001",
			"translation":[
				0,
				0.10737204551696777,
				0
			]
		},
		{
			"children":[
				9
			],
			"name":"Bun_bottom",
			"translation":[
				0,
				-0.6781754493713379,
				0
			]
		},
		{
			"children":[
				1,
				3,
				5,
				8,
				10
			],
			"name":"Root"
		},
		{
			"children":[
				11
			],
			"name":"Armature"
		}
	],
	"animations":[
		{
			"channels":[
				{
					"sampler":0,
					"target":{
						"node":11,
						"path":"translation"
					}
				},
				{
					"sampler":1,
					"target":{
						"node":11,
						"path":"rotation"
					}
				},
				{
					"sampler":2,
					"target":{
						"node":11,
						"path":"scale"
					}
				},
				{
					"sampler":3,
					"target":{
						"node":1,
						"path":"translation"
					}
				},
				{
					"sampler":4,
					"target":{
						"node":1,
						"path":"rotation"
					}
				},
				{
					"sampler":5,
					"target":{
						"node":1,
						"path":"scale"
					}
				},
				{
					"sampler":6,
					"target":{
						"node":3,
						"path":"translation"
					}
				},
				{
					"sampler":7,
					"target":{
						"node":3,
						"path":"rotation"
					}
				},
				{
					"sampler":8,
					"target":{
						"node":3,
						"path":"scale"
					}
				},
				{
					"sampler":9,
					"target":{
						"node":5,
						"path":"translation"
					}
				},
				{
					"sampler":10,
					"target":{
						"node":5,
						"path":"rotation"
					}
				},
				{
					"sampler":11,
					"target":{
						"node":5,
						"path":"scale"
					}
				},
				{
					"sampler":12,
					"target":{
						"node":8,
						"path":"translation"
					}
				},
				{
					"sampler":13,
					"target":{
						"node":8,
						"path":"rotation"
					}
				},
				{
					"sampler":14,
					"target":{
						"node":8,
						"path":"scale"
					}
				},
				{
					"sampler":15,
					"target":{
						"node":10,
						"path":"translation"
					}
				},
				{
					"sampler":16,
					"target":{
						"node":10,
						"path":"rotation"
					}
				},
				{
					"sampler":17,
					"target":{
						"node":10,
						"path":"scale"
					}
				}
			],
			"name":"Burger_explode",
			"samplers":[
				{
					"input":24,
					"interpolation":"STEP",
					"output":25
				},
				{
					"input":26,
					"interpolation":"LINEAR",
					"output":27
				},
				{
					"input":24,
					"interpolation":"STEP",
					"output":28
				},
				{
					"input":26,
					"interpolation":"LINEAR",
					"output":29
				},
				{
					"input":26,
					"interpolation":"LINEAR",
					"output":30
				},
				{
					"input":24,
					"interpolation":"STEP",
					"output":31
				},
				{
					"input":26,
					"interpolation":"LINEAR",
					"output":32
				},
				{
					"input":26,
					"interpolation":"LINEAR",
					"output":33
				},
				{
					"input":24,
					"interpolation":"STEP",
					"output":34
				},
				{
					"input":24,
					"interpolation":"STEP",
					"output":35
				},
				{
					"input":26,
					"interpolation":"LINEAR",
					"output":36
				},
				{
					"input":24,
					"interpolation":"STEP",
					"output":37
				},
				{
					"input":26,
					"interpolation":"LINEAR",
					"output":38
				},
				{
					"input":26,
					"interpolation":"LINEAR",
					"output":39
				},
				{
					"input":24,
					"interpolation":"STEP",
					"output":40
				},
				{
					"input":26,
					"interpolation":"LINEAR",
					"output":41
				},
				{
					"input":26,
					"interpolation":"LINEAR",
					"output":42
				},
				{
					"input":24,
					"interpolation":"STEP",
					"output":43
				}
			]
		}
	],
	"materials":[
		{
			"doubleSided":true,
			"name":"Material.001",
			"pbrMetallicRoughness":{}
		}
	],
	"meshes":[
		{
			"name":"Cube",
			"primitives":[
				{
					"attributes":{
						"POSITION":0,
						"NORMAL":1,
						"TEXCOORD_0":2
					},
					"indices":3,
					"material":0
				}
			]
		},
		{
			"name":"Cylinder",
			"primitives":[
				{
					"attributes":{
						"POSITION":4,
						"NORMAL":5,
						"TEXCOORD_0":6
					},
					"indices":7,
					"material":0
				}
			]
		},
		{
			"name":"Plane",
			"primitives":[
				{
					"attributes":{
						"POSITION":8,
						"NORMAL":9,
						"TEXCOORD_0":10
					},
					"indices":11,
					"material":0
				}
			]
		},
		{
			"name":"Cube.001",
			"primitives":[
				{
					"attributes":{
						"POSITION":12,
						"NORMAL":13,
						"TEXCOORD_0":14
					},
					"indices":15,
					"material":0
				}
			]
		},
		{
			"name":"Plane.001",
			"primitives":[
				{
					"attributes":{
						"POSITION":16,
						"NORMAL":17,
						"TEXCOORD_0":18
					},
					"indices":19,
					"material":0
				}
			]
		},
		{
			"name":"Cylinder.001",
			"primitives":[
				{
					"attributes":{
						"POSITION":20,
						"NORMAL":21,
						"TEXCOORD_0":22
					},
					"indices":23,
					"material":0
				}
			]
		}
	],
	"skins":[
		{
			"inverseBindMatrices":44,
			"joints":[
				11,
				1,
				3,
				5,
				8,
				10
			],
			"name":"Armature"
		}
	],
	"accessors":[
		{
			"bufferView":0,
			"componentType":5126,
			"count":273,
			"max":[
				0.8395062685012817,
				0.8395062685012817,
				0.8395062685012817
			],
			"min":[
				-0.8395062685012817,
				-9.346171836455142e-09,
				-0.8395062685012817
			],
			"type":"VEC3"
		},
		{
			"bufferView":1,
			"componentType":5126,
			"count":273,
			"type":"VEC3"
		},
		{
			"bufferView":2,
			"componentType":5126,
			"count":273,
			"type":"VEC2"
		},
		{
			"bufferView":3,
			"componentType":5123,
			"count":1434,
			"type":"SCALAR"
		},
		{
			"bufferView":4,
			"componentType":5126,
			"count":130,
			"max":[
				1.3391516208648682,
				0.09703439474105835,
				1.3391516208648682
			],
			"min":[
				-1.3391516208648682,
				-0.09703439474105835,
				-1.3391516208648682
			],
			"type":"VEC3"
		},
		{
			"bufferView":5,
			"componentType":5126,
			"count":130,
			"type":"VEC3"
		},
		{
			"bufferView":6,
			"componentType":5126,
			"count":130,
			"type":"VEC2"
		},
		{
			"bufferView":7,
			"componentType":5123,
			"count":372,
			"type":"SCALAR"
		},
		{
			"bufferView":8,
			"componentType":5126,
			"count":2178,
			"max":[
				0.9629970788955688,
				0.04500533640384674,
				0.9361333847045898
			],
			"min":[
				-1.0047394037246704,
				-0.21589168906211853,
				-0.9917598962783813
			],
			"type":"VEC3"
		},
		{
			"bufferView":9,
			"componentType":5126,
			"count":2178,
			"type":"VEC3"
		},
		{
			"bufferView":10,
			"componentType":5126,
			"count":2178,
			"type":"VEC2"
		},
		{
			"bufferView":11,
			"componentType":5123,
			"count":13056,
			"type":"SCALAR"
		},
		{
			"bufferView":12,
			"componentType":5126,
			"count":457,
			"max":[
				0.7072240710258484,
				0.5050744414329529,
				0.7072240710258484
			],
			"min":[
				-0.7072241306304932,
				-0.5050744414329529,
				-0.7072240710258484
			],
			"type":"VEC3"
		},
		{
			"bufferView":13,
			"componentType":5126,
			"count":457,
			"type":"VEC3"
		},
		{
			"bufferView":14,
			"componentType":5126,
			"count":457,
			"type":"VEC2"
		},
		{
			"bufferView":15,
			"componentType":5123,
			"count":2304,
			"type":"SCALAR"
		},
		{
			"bufferView":16,
			"componentType":5126,
			"count":710,
			"max":[
				1.0119659900665283,
				0.113099604845047,
				1.01824152469635
			],
			"min":[
				-1.0159286260604858,
				-0.1898159384727478,
				-1.0075970888137817
			],
			"type":"VEC3"
		},
		{
			"bufferView":17,
			"componentType":5126,
			"count":710,
			"type":"VEC3"
		},
		{
			"bufferView":18,
			"componentType":5126,
			"count":710,
			"type":"VEC2"
		},
		{
			"bufferView":19,
			"componentType":5123,
			"count":3456,
			"type":"SCALAR"
		},
		{
			"bufferView":20,
			"componentType":5126,
			"count":261,
			"max":[
				1.3864294290542603,
				0.13066276907920837,
				1.3864294290542603
			],
			"min":[
				-1.3864294290542603,
				-0.2629725933074951,
				-1.3864294290542603
			],
			"type":"VEC3"
		},
		{
			"bufferView":21,
			"componentType":5126,
			"count":261,
			"type":"VEC3"
		},
		{
			"bufferView":22,
			"componentType":5126,
			"count":261,
			"type":"VEC2"
		},
		{
			"bufferView":23,
			"componentType":5123,
			"count":1140,
			"type":"SCALAR"
		},
		{
			"bufferView":24,
			"componentType":5126,
			"count":2,
			"max":[
				3.9583333333333335
			],
			"min":[
				0.041666666666666664
			],
			"type":"SCALAR"
		},
		{
			"bufferView":25,
			"componentType":5126,
			"count":2,
			"type":"VEC3"
		},
		{
			"bufferView":26,
			"componentType":5126,
			"count":95,
			"max":[
				3.9583333333333335
			],
			"min":[
				0.041666666666666664
			],
			"type":"SCALAR"
		},
		{
			"bufferView":27,
			"componentType":5126,
			"count":95,
			"type":"VEC4"
		},
		{
			"bufferView":28,
			"componentType":5126,
			"count":2,
			"type":"VEC3"
		},
		{
			"bufferView":29,
			"componentType":5126,
			"count":95,
			"type":"VEC3"
		},
		{
			"bufferView":30,
			"componentType":5126,
			"count":95,
			"type":"VEC4"
		},
		{
			"bufferView":31,
			"componentType":5126,
			"count":2,
			"type":"VEC3"
		},
		{
			"bufferView":32,
			"componentType":5126,
			"count":95,
			"type":"VEC3"
		},
		{
			"bufferView":33,
			"componentType":5126,
			"count":95,
			"type":"VEC4"
		},
		{
			"bufferView":34,
			"componentType":5126,
			"count":2,
			"type":"VEC3"
		},
		{
			"bufferView":35,
			"componentType":5126,
			"count":2,
			"type":"VEC3"
		},
		{
			"bufferView":36,
			"componentType":5126,
			"count":95,
			"type":"VEC4"
		},
		{
			"bufferView":37,
			"componentType":5126,
			"count":2,
			"type":"VEC3"
		},
		{
			"bufferView":38,
			"componentType":5126,
			"count":95,
			"type":"VEC3"
		},
		{
			"bufferView":39,
			"componentType":5126,
			"count":95,
			"type":"VEC4"
		},
		{
			"bufferView":40,
			"componentType":5126,
			"count":2,
			"type":"VEC3"
		},
		{
			"bufferView":41,
			"componentType":5126,
			"count":95,
			"type":"VEC3"
		},
		{
			"bufferView":42,
			"componentType":5126,
			"count":95,
			"type":"VEC4"
		},
		{
			"bufferView":43,
			"componentType":5126,
			"count":2,
			"type":"VEC3"
		},
		{
			"bufferView":44,
			"componentType":5126,
			"count":6,
			"type":"MAT4"
		}
	],
	"bufferViews":[
		{
			"buffer":0,
			"byteLength":3276,
			"byteOffset":0,
			"target":34962
		},
		{
			"buffer":0,
			"byteLength":3276,
			"byteOffset":3276,
			"target":34962
		},
		{
			"buffer":0,
			"byteLength":2184,
			"byteOffset":6552,
			"target":34962
		},
		{
			"buffer":0,
			"byteLength":2868,
			"byteOffset":8736,
			"target":34963
		},
		{
			"buffer":0,
			"byteLength":1560,
			"byteOffset":11604,
			"target":34962
		},
		{
			"buffer":0,
			"byteLength":1560,
			"byteOffset":13164,
			"target":34962
		},
		{
			"buffer":0,
			"byteLength":1040,
			"byteOffset":14724,
			"target":34962
		},
		{
			"buffer":0,
			"byteLength":744,
			"byteOffset":15764,
			"target":34963
		},
		{
			"buffer":0,
			"byteLength":26136,
			"byteOffset":16508,
			"target":34962
		},
		{
			"buffer":0,
			"byteLength":26136,
			"byteOffset":42644,
			"target":34962
		},
		{
			"buffer":0,
			"byteLength":17424,
			"byteOffset":68780,
			"target":34962
		},
		{
			"buffer":0,
			"byteLength":26112,
			"byteOffset":86204,
			"target":34963
		},
		{
			"buffer":0,
			"byteLength":5484,
			"byteOffset":112316,
			"target":34962
		},
		{
			"buffer":0,
			"byteLength":5484,
			"byteOffset":117800,
			"target":34962
		},
		{
			"buffer":0,
			"byteLength":3656,
			"byteOffset":123284,
			"target":34962
		},
		{
			"buffer":0,
			"byteLength":4608,
			"byteOffset":126940,
			"target":34963
		},
		{
			"buffer":0,
			"byteLength":8520,
			"byteOffset":131548,
			"target":34962
		},
		{
			"buffer":0,
			"byteLength":8520,
			"byteOffset":140068,
			"target":34962
		},
		{
			"buffer":0,
			"byteLength":5680,
			"byteOffset":148588,
			"target":34962
		},
		{
			"buffer":0,
			"byteLength":6912,
			"byteOffset":154268,
			"target":34963
		},
		{
			"buffer":0,
			"byteLength":3132,
			"byteOffset":161180,
			"target":34962
		},
		{
			"buffer":0,
			"byteLength":3132,
			"byteOffset":164312,
			"target":34962
		},
		{
			"buffer":0,
			"byteLength":2088,
			"byteOffset":167444,
			"target":34962
		},
		{
			"buffer":0,
			"byteLength":2280,
			"byteOffset":169532,
			"target":34963
		},
		{
			"buffer":0,
			"byteLength":8,
			"byteOffset":171812
		},
		{
			"buffer":0,
			"byteLength":24,
			"byteOffset":171820
		},
		{
			"buffer":0,
			"byteLength":380,
			"byteOffset":171844
		},
		{
			"buffer":0,
			"byteLength":1520,
			"byteOffset":172224
		},
		{
			"buffer":0,
			"byteLength":24,
			"byteOffset":173744
		},
		{
			"buffer":0,
			"byteLength":1140,
			"byteOffset":173768
		},
		{
			"buffer":0,
			"byteLength":1520,
			"byteOffset":174908
		},
		{
			"buffer":0,
			"byteLength":24,
			"byteOffset":176428
		},
		{
			"buffer":0,
			"byteLength":1140,
			"byteOffset":176452
		},
		{
			"buffer":0,
			"byteLength":1520,
			"byteOffset":177592
		},
		{
			"buffer":0,
			"byteLength":24,
			"byteOffset":179112
		},
		{
			"buffer":0,
			"byteLength":24,
			"byteOffset":179136
		},
		{
			"buffer":0,
			"byteLength":1520,
			"byteOffset":179160
		},
		{
			"buffer":0,
			"byteLength":24,
			"byteOffset":180680
		},
		{
			"buffer":0,
			"byteLength":1140,
			"byteOffset":180704
		},
		{
			"buffer":0,
			"byteLength":1520,
			"byteOffset":181844
		},
		{
			"buffer":0,
			"byteLength":24,
			"byteOffset":183364
		},
		{
			"buffer":0,
			"byteLength":1140,
			"byteOffset":183388
		},
		{
			"buffer":0,
			"byteLength":1520,
			"byteOffset":184528
		},
		{
			"buffer":0,
			"byteLength":24,
			"byteOffset":186048
		},
		{
			"buffer":0,
			"byteLength":384,
			"byteOffset":186072
		}
	],
	"buffers":[
		{
			"byteLength":186456,
			"uri":"Burger.bin"
		}
	]
}
